<?xml version="1.0" encoding="utf-8"?>
<!-- Generator: Adobe Illustrator 26.1.0, SVG Export Plug-In . SVG Version: 6.00 Build 0)  -->
<svg version="1.1" id="Layer_1" xmlns="http://www.w3.org/2000/svg" xmlns:xlink="http://www.w3.org/1999/xlink" x="0px" y="0px"
	 viewBox="0 0 343.2 59.2" style="enable-background:new 0 0 343.2 59.2;" xml:space="preserve">
<style type="text/css">
	.st0{fill:#9AE2D6;}
	.st1{fill:#1AAB9A;}
	.st2{fill:#222222;}

	 <!-- .st0{fill:#FFFFFF;} /* Changed to white */ -->
    <!-- .st1{fill:#FFFFFF;} /* Changed to white */ -->
    .st2{fill:#FFFFFF;} /* Changed to white */
</style>
<g>
	<g>
		<path class="st0" d="M65.5,59.2H31.9V0h33.6V59.2z M37.9,53.2h21.6V6H37.9V53.2z"/>
	</g>
	<g>
		<rect y="53.2" class="st1" width="73.8" height="6"/>
	</g>
	<g>
		<path class="st1" d="M48.2,59.2H8.7V29.4l19.9-14.8l19.5,14.5V59.2z M14.7,53.2h27.5v-21L28.6,22.1L14.7,32.5V53.2z"/>
	</g>
	<g>
		<path class="st2" d="M107.4,27.2h14.2V12.3h7.7V49h-7.7V33.6h-14.2V49h-7.7V12.3h7.7V27.2z"/>
		<path class="st2" d="M158.9,45.8c-1.3,1.3-2.9,2.2-4.7,2.9c-1.8,0.6-3.7,0.9-5.7,0.9s-3.8-0.3-5.6-0.9c-1.8-0.6-3.4-1.6-4.7-2.8
			c-1.3-1.3-2.3-2.8-3-4.7c-0.7-1.8-1-3.7-1-5.6c0-1.9,0.3-3.8,1-5.6c0.7-1.8,1.7-3.4,3-4.7c1.3-1.3,2.9-2.2,4.7-2.8
			c1.8-0.6,3.7-0.9,5.7-0.9c1.9,0,3.8,0.3,5.6,0.9c1.8,0.6,3.4,1.6,4.7,2.8c1.3,1.3,2.3,2.8,3,4.7c0.7,1.8,1,3.7,1,5.6
			c0,1.9-0.3,3.8-1,5.6C161.2,43,160.3,44.5,158.9,45.8L158.9,45.8z M146.2,43.3c0.2,0.1,0.5,0.2,0.7,0.3c0.2,0.1,0.4,0.1,0.6,0.2
			c1.6,0.2,3.2-0.1,4.6-0.9c1.4-0.9,2.4-2.1,2.9-3.7c0.2-0.6,0.3-1.2,0.4-1.9c0.1-0.7,0.1-1.3,0.1-2c-0.1-1.5-0.4-2.9-1.1-4.3
			c-0.6-1.3-1.7-2.3-3.1-2.9c-0.3-0.1-0.6-0.2-1-0.3c-0.3-0.1-0.7-0.1-1-0.2c-1.6-0.1-3,0.2-4.4,1.1c-1.4,0.9-2.3,2-2.8,3.6
			c-0.2,0.6-0.3,1.2-0.4,1.8s-0.1,1.3-0.1,1.9c0,1.6,0.4,3.1,1.1,4.5C143.5,41.7,144.7,42.7,146.2,43.3L146.2,43.3z"/>
		<path class="st2" d="M178.3,49c-3.4,0-6.2-0.7-8.2-2c-2-1.4-3-4-3-7.8V22h7.1v16.5c0,1.8,0.3,3,1,3.6c0.7,0.6,1.9,0.9,3.6,0.9
			l5.7-0.1V22h7.1v27H178.3z"/>
		<path class="st2" d="M212.6,43.4c0.1,0,0.1,0.1,0.2,0.1s0.1,0,0.2,0c0.9,0,1.6-0.2,2.4-0.6s1.1-1,1.1-2.1c0-1-0.3-1.7-1-2
			c-0.7-0.3-1.4-0.5-2.2-0.6c-0.1,0-0.2,0-0.3,0s-0.2,0-0.3,0l-6.1-0.1c-2.9,0-5.1-0.4-6.8-1.2c-1.7-0.8-2.5-2.9-2.5-6.2
			c0-3.1,0.8-5.4,2.6-6.6c1.7-1.3,4.1-1.9,7-1.9L222,22v5.6h-12.6c-0.1,0-0.2,0.1-0.3,0.1c-0.1,0-0.2,0-0.3,0c-0.2,0-0.5,0-0.7,0
			c-0.2,0-0.5,0-0.7,0c-0.6,0-1.2,0.2-1.8,0.4c-0.6,0.2-0.9,0.7-1.1,1.3c-0.3,1.2,0,2,0.7,2.5c0.7,0.4,1.6,0.7,2.6,0.7l6.4-0.1
			c2.5,0,4.6,0.6,6.3,1.8c1.7,1.1,2.6,3.1,2.7,5.9c0,0,0,0.1,0,0.1c0,0,0,0,0,0.1c0,2.2-0.6,4.2-1.9,6S218.4,49,216,49h-18.4v-5.6
			H212.6z"/>
		<path class="st2" d="M234.9,48.3c-1.8-0.5-3.4-1.4-4.7-2.9c-1.1-1.2-1.9-2.6-2.4-4.1s-0.8-3.1-0.9-4.7c0-0.2,0-0.3,0-0.5
			c0-0.2,0-0.3,0-0.5c0-0.2,0-0.5,0-0.7s0-0.5,0.1-0.7c0.1-1.5,0.4-3,0.9-4.5c0.5-1.5,1.3-2.8,2.3-4c1.4-1.5,2.9-2.5,4.7-2.9
			c1.8-0.5,3.6-0.7,5.5-0.7l10.4-0.1v5.6h-9.4c-2,0-3.6,0.3-4.8,0.9s-1.8,2-1.9,4.2l16.1-0.1v5.6h-16.1c0.1,2.4,0.7,3.8,1.8,4.3
			c1.1,0.5,2.7,0.8,4.8,0.8l9.5-0.1V49h-10.4C238.5,49,236.7,48.8,234.9,48.3z"/>
		<path class="st2" d="M264.1,48.5c-2-0.4-3.9-1.4-5.6-3.2c-1.5-1.5-2.4-3.3-2.8-5.2c-0.4-1.9-0.6-3.9-0.6-5.9V12.3h7.7v20.1
			c0,3.4,0.3,6,1.1,7.8c0.8,1.8,3.2,2.7,7.3,2.7l9.1-0.1V49h-9.8C268.3,49,266.2,48.8,264.1,48.5z"/>
		<path class="st2" d="M298.9,22c1.6,0,3.1,0.2,4.5,0.5c1.4,0.3,2.8,1.1,3.9,2.2c1,1,1.7,2.1,2.1,3.4c0.4,1.3,0.6,2.6,0.6,4V49
			h-19.1c-2.8,0-4.9-0.8-6.3-2.3c-1.5-1.5-2.1-3.6-2-6.3c0.2-3.2,1.4-5.3,3.4-6.3c2-1,4.5-1.4,7.3-1.4l9.4-0.1
			c0.1-2.2-0.5-3.6-1.7-4.1c-1.2-0.5-2.8-0.8-4.7-0.8l-11.9-0.1V22H298.9z M293.8,43.6h8.9V38h-8.4c-0.1,0-0.1,0.1-0.2,0.1
			s-0.1,0-0.2,0c-1,0-1.8,0.2-2.7,0.5c-0.8,0.3-1.2,1.1-1.3,2.3c-0.1,1.3,0.3,2.1,1.1,2.4C291.9,43.5,292.8,43.6,293.8,43.6
			L293.8,43.6z"/>
		<path class="st2" d="M323.4,22h6.1c2.1,0,4,0.3,5.9,0.8s3.4,1.6,4.8,3.4c1.1,1.4,1.9,3,2.4,4.7c0.4,1.7,0.6,3.5,0.5,5.3
			c-0.2,4-1.4,7.1-3.7,9.3c-2.3,2.3-5.4,3.4-9.4,3.4h-13.7V12.3h7.1V22z M327.8,27.9h-4.3v15.3c0.3,0,0.7,0.1,1,0.1c0.4,0,0.7,0,1,0
			c2.4,0.1,4.6-0.1,6.6-0.6c2-0.4,3.2-2.2,3.5-5.3c0-0.4,0.1-0.8,0.1-1.3c0-0.4,0-0.8,0-1.3c0-0.7-0.1-1.5-0.3-2.2
			c-0.2-0.7-0.4-1.4-0.8-2c-0.8-1.4-1.7-2.2-2.9-2.5C330.5,28.1,329.2,27.9,327.8,27.9L327.8,27.9z"/>
	</g>
</g>
</svg>
